<?xml version="1.0" standalone="no"?>
<!DOCTYPE svg PUBLIC "-//W3C//DTD SVG 20010904//EN"
 "http://www.w3.org/TR/2001/REC-SVG-20010904/DTD/svg10.dtd">
<svg version="1.0" xmlns="http://www.w3.org/2000/svg"
 width="70.000000pt" height="70.000000pt" viewBox="0 0 70.000000 70.000000"
 preserveAspectRatio="xMidYMid meet">
<metadata>
Created by potrace 1.14, written by Peter Selinger 2001-2017
</metadata>
<g transform="translate(0.000000,70.000000) scale(0.100000,-0.100000)"
fill="#000000" stroke="none">
<path d="M180 477 c0 -58 -5 -81 -25 -119 -29 -54 -31 -87 -10 -128 29 -56
108 -76 163 -41 27 16 52 61 52 91 0 11 6 20 14 20 11 0 13 -8 9 -33 -4 -26 1
-40 22 -65 35 -42 75 -43 116 -3 38 38 38 74 -1 113 -20 19 -30 40 -30 59 0
19 -5 29 -15 29 -11 0 -15 11 -15 40 0 29 -4 40 -15 40 -11 0 -15 -11 -15 -40
0 -38 -2 -40 -30 -40 l-30 0 0 75 0 75 -95 0 -95 0 0 -73z m170 -7 l0 -60 -75
0 -75 0 0 60 0 60 75 0 75 0 0 -60z m120 -108 c0 -11 -12 -22 -33 -30 -55 -20
-80 -15 -99 18 l-17 30 74 0 c66 0 75 -2 75 -18z m-196 -18 c31 -12 15 -24
-30 -24 -40 0 -45 2 -34 15 13 16 38 19 64 9z m31 -71 c-6 -27 -31 -52 -50
-53 -39 0 -75 33 -75 70 0 6 30 10 66 10 l66 0 -7 -27z m189 11 c9 -8 16 -22
16 -29 0 -7 -7 -21 -16 -29 -20 -20 -38 -20 -58 0 -9 8 -16 22 -16 29 0 18 27
45 45 45 7 0 21 -7 29 -16z"/>
<path d="M230 485 c0 -23 4 -25 45 -25 41 0 45 2 45 25 0 23 -4 25 -45 25 -41
0 -45 -2 -45 -25z m63 -2 c-7 -2 -21 -2 -30 0 -10 3 -4 5 12 5 17 0 24 -2 18
-5z"/>
</g>
</svg>
